<?xml version="1.0" encoding="utf-8"?>
<!-- Generator: Adobe Illustrator 19.0.0, SVG Export Plug-In . SVG Version: 6.00 Build 0)  -->
<svg version="1.1" id="Layer_1" xmlns="http://www.w3.org/2000/svg" xmlns:xlink="http://www.w3.org/1999/xlink" x="0px" y="0px"
	 viewBox="0 0 1211.7 450.9" style="enable-background:new 0 0 1211.7 450.9;" xml:space="preserve">
<style type="text/css">
	.st0{fill:#EF4444;}
</style>
<g id="XMLID_38_">
	<g id="XMLID_10_">
		<circle id="XMLID_1_" cx="225.4" cy="225.4" r="225.4"/>
		<g id="XMLID_2_">
			<path id="XMLID_7_" class="st0" d="M404.6,219.5l-73.5-93.6c-3.3-4.3-7.9-7.3-13.1-8.6c-2.1-0.6-4.3-0.9-6.4-0.9h-25.1
				l-14.3,34.4h18.2c4.4,0,8.6,1.6,11.9,4.5c0.8,0.7,1.6,1.5,2.2,2.4l53.1,67.7c7.1,9.1,7.1,21.8,0,30.9L304.5,324
				c-3.4,4.3-8.6,6.9-14.1,6.9H185.2l-14.3,34.4h140.7c7.6,0,14.8-3.5,19.5-9.5l73.5-93.6C414.4,249.6,414.4,232,404.6,219.5z"/>
			<path id="XMLID_5_" class="st0" d="M139.3,85.6c-7.6,0-14.8,3.5-19.5,9.5l-73.5,93.6c-9.8,12.5-9.8,30.1,0,42.7l73.5,93.6
				c4.7,6,11.9,9.5,19.5,9.5h25.1l14.3-34.4h-18.2c-5.5,0-10.7-2.5-14.1-6.9l-53.1-67.7c-7.1-9.1-7.1-21.8,0-30.9l53.1-67.7
				c3.4-4.3,8.6-6.9,14.1-6.9h105.1l14.3-34.4H139.3z"/>
			<polygon id="XMLID_4_" class="st0" points="202.8,365.3 170.9,365.3 274.2,116.4 306.1,116.4 			"/>
			<polygon id="XMLID_3_" class="st0" points="248,85.6 279.9,85.6 176.7,334.5 144.8,334.5 			"/>
		</g>
	</g>
	<g id="XMLID_11_">
		<g id="XMLID_12_">
			<path id="XMLID_13_" d="M538.1,52.5h39.7l61,178.2h-34l-13.1-39.9h-69.3L509,230.7h-33.8L538.1,52.5z M557.6,86.3L531.3,164h51.7
				L557.6,86.3z"/>
			<path id="XMLID_16_" d="M649.2,52.5h89.4c22.4,0,37.7,5.8,46,17.3c8.3,11.5,12.4,31.8,12.4,60.9v21.8c0,29.1-4.1,49.4-12.4,60.9
				c-8.3,11.5-23.6,17.3-46,17.3h-89.4V52.5z M683.7,81.4v120.4h53.1c9.9,0,16.6-3.2,20.3-9.6c3.7-6.4,5.5-17.3,5.5-32.6v-35.9
				c0-15.3-1.8-26.2-5.5-32.6c-3.7-6.4-10.4-9.6-20.3-9.6H683.7z"/>
			<path id="XMLID_19_" d="M814.2,52.5h123.5v30.8h-90.9v39.9h88.5v27.7h-88.5v49.5h91.8v30.3H814.2V52.5z"/>
			<path id="XMLID_21_" d="M955.3,52.5h123.5v30.8h-90.9v39.9h88.5v27.7h-88.5v49.5h91.8v30.3H955.3V52.5z"/>
			<path id="XMLID_23_" d="M1096.4,52.5h34.5v148.4h80.8v29.8h-115.3V52.5z"/>
		</g>
		<g id="XMLID_9_">
			<path id="XMLID_25_" d="M475.2,259h16.2l57.4,123.3L606.8,259h15.6v137.8h-10.5V274.6l-58.1,122.2h-10.9l-57.2-122.2v122.2h-10.5
				V259z"/>
			<path id="XMLID_27_" d="M638.4,259h11.8v100.9c0,11.3,2.9,18.8,8.8,22.6c5.9,3.8,16.4,5.7,31.7,5.7c15,0,25.4-1.9,31.2-5.7
				c5.8-3.8,8.7-11.3,8.7-22.6V259h12v100.9c0,15.2-3.7,25.5-11.1,30.7c-7.4,5.2-20.9,7.8-40.7,7.8c-20.1,0-33.9-2.6-41.3-7.8
				c-7.4-5.2-11.2-15.4-11.2-30.7V259z"/>
			<path id="XMLID_29_" d="M811.9,257c11.1,0,20.2,1,27.3,2.9c7.1,1.9,12.4,5.1,16,9.3c3.6,4.3,6,9,7.2,14.1
				c1.2,5.1,1.8,11.6,1.8,19.6v1.8h-11.1c0.1-0.4,0.2-1.1,0.2-2.4c0-6.1-0.5-11-1.5-15c-1-3.9-3-7.6-5.8-10.9
				c-2.8-3.3-7.1-5.7-12.6-7.3c-5.6-1.5-12.7-2.3-21.4-2.3c-8,0-14.6,0.8-20,2.3c-5.3,1.5-9.6,3.5-12.7,6c-3.1,2.5-5.5,6.2-7.2,11.1
				c-1.6,4.9-2.7,9.9-3.2,15c-0.5,5.1-0.7,11.8-0.7,20.2v12.2c0,8,0.2,14.5,0.7,19.6c0.5,5.1,1.5,10,3.1,14.6
				c1.6,4.7,3.8,8.2,6.7,10.7c2.9,2.5,6.7,4.4,11.5,5.9c4.8,1.5,10.7,2.2,17.7,2.2h45.9v-49h-37.6v-10h48.8v69.2h-57.7
				c-7.6,0-14.2-0.5-19.7-1.5c-5.5-1-10.2-2.9-14-5.5c-3.8-2.7-6.8-5.6-9.1-8.9c-2.2-3.3-4-7.7-5.3-13.4c-1.3-5.7-2.1-11.5-2.5-17.3
				c-0.4-5.9-0.5-13.3-0.5-22.4c0-9.2,0.2-16.7,0.5-22.5c0.4-5.8,1.2-11.7,2.5-17.6c1.3-5.9,3.1-10.6,5.5-13.9
				c2.4-3.3,5.7-6.4,9.8-9.2c4.1-2.8,9.2-4.7,15.3-5.8C796.2,257.5,803.5,257,811.9,257z"/>
			<path id="XMLID_31_" d="M881.5,259h12v61h84.2v-61h12v137.8h-12v-66.6h-84.2v66.6h-12V259z"/>
			<path id="XMLID_33_" d="M1053,259h13.8l52.1,137.8h-11.8l-13.8-36.9h-68.1l-14.3,36.9h-11.6L1053,259z M1059.9,270.6l-31,79.9
				h60.8L1059.9,270.6z"/>
			<path id="XMLID_36_" d="M1128.3,259h12v127.4h71.3v10.3h-83.3V259z"/>
		</g>
	</g>
</g>
<g id="XMLID_104_">
</g>
<g id="XMLID_105_">
</g>
<g id="XMLID_106_">
</g>
<g id="XMLID_107_">
</g>
<g id="XMLID_108_">
</g>
<g id="XMLID_109_">
</g>
<g id="XMLID_110_">
</g>
<g id="XMLID_111_">
</g>
<g id="XMLID_112_">
</g>
<g id="XMLID_113_">
</g>
<g id="XMLID_114_">
</g>
<g id="XMLID_115_">
</g>
<g id="XMLID_116_">
</g>
<g id="XMLID_117_">
</g>
<g id="XMLID_118_">
</g>
</svg>
